<svg xmlns="http://www.w3.org/2000/svg" viewBox="0 0 70 70"><defs><style>.cls-1{fill:#f9c290;}.cls-1,.cls-2,.cls-3{stroke:#5f363a;stroke-linecap:round;stroke-linejoin:round;stroke-width:3px;}.cls-2{fill:#ec6d5e;}.cls-3{fill:#ffdd7d;}</style></defs><title>bonfire</title><g id="Adventure"><path class="cls-1" d="M19,47.67H40a5.13,5.13,0,0,1,5.13,5.13v.57A5.13,5.13,0,0,1,40,58.5H19a5.42,5.42,0,0,1-5.42-5.42v0A5.42,5.42,0,0,1,19,47.67Z" transform="translate(-18.25 15.5) rotate(-22.76)"/><rect class="cls-1" x="24.83" y="47.67" width="31.58" height="10.83" rx="5.42" ry="5.42" transform="translate(57.54 117.76) rotate(-157.24)"/><path class="cls-2" d="M33.56,8.09a2,2,0,0,1,2.88,0c4.06,4.21,15.35,17,15.35,29.48,0,9.81-7.52,17.76-16.79,17.76S18.21,47.38,18.21,37.57C18.21,25.1,29.5,12.3,33.56,8.09Z"/><path class="cls-3" d="M35,55.33c-4,0-7.19-3.66-7.19-8.17,0-4.79,3-9.07,6.37-14.15a1,1,0,0,1,1.66,0c3.48,5.18,6.35,9.42,6.35,14.15C42.19,51.67,39,55.33,35,55.33Z"/></g></svg>