<svg xmlns="http://www.w3.org/2000/svg" viewBox="0 0 70 70"><defs><style>.cls-1{fill:none;}.cls-1,.cls-2{stroke:#5f363a;stroke-linecap:round;stroke-linejoin:round;stroke-width:3px;}.cls-2{fill:#f9c290;}.cls-3{fill:#5f363a;}</style></defs><title>compass</title><g id="Education"><line class="cls-1" x1="19.97" y1="24.78" x2="54.52" y2="48.88"/><line class="cls-1" x1="57.71" y1="7.49" x2="52.62" y2="14.78"/><line class="cls-1" x1="12.29" y1="43.36" x2="15" y2="39.47"/><line class="cls-1" x1="39.75" y1="62.51" x2="42.46" y2="58.62"/><path class="cls-2" d="M57.38,19.32l-5.86,8.4c-.13.19-.27.37-.41.54a6.52,6.52,0,0,1-6.21,2.12,6.59,6.59,0,0,1-2.43-1h0a6.52,6.52,0,0,1-2-8.46,5.27,5.27,0,0,1,.37-.59l5.86-8.41a1,1,0,0,1,1.39-.24l9,6.29A1,1,0,0,1,57.38,19.32Z"/><path class="cls-2" d="M40.66,27.42a6.51,6.51,0,0,1-.17-6.54L20.37,30.32A8,8,0,0,0,16,35.54l-1,3.93,25.66-12Z"/><path class="cls-2" d="M44.9,30.38a6.52,6.52,0,0,0,6.21-2.12L49.19,50.42A8,8,0,0,1,45.8,56.3l-3.34,2.32Z"/><circle class="cls-3" cx="46.4" cy="23.7" r="2.15"/></g></svg>