<svg xmlns="http://www.w3.org/2000/svg" viewBox="0 0 70 70"><defs><style>.cls-1{fill:none;}.cls-1,.cls-2,.cls-3{stroke:#5f363a;stroke-linecap:round;stroke-linejoin:round;stroke-width:3px;}.cls-2{fill:#ced8da;}.cls-3{fill:#fffaf0;}</style></defs><title>stethoscope</title><g id="Medicine"><path class="cls-1" d="M52.93,7.3h4.15a1,1,0,0,1,1,1V29.77a7.41,7.41,0,0,1-7.41,7.41H41.8a7.41,7.41,0,0,1-7.41-7.41V8.3a1,1,0,0,1,1-1h4.15"/><path class="cls-2" d="M34.39,28.71v1.06a7.41,7.41,0,0,0,7.41,7.41h8.87a7.41,7.41,0,0,0,7.41-7.41V28.71Z"/><path class="cls-1" d="M17.42,37.81V48.29A14.41,14.41,0,0,0,31.83,62.7h0A14.41,14.41,0,0,0,46.24,48.29V43"/><circle class="cls-3" cx="17.42" cy="32.31" r="5.5"/><path class="cls-3" d="M46.24,43h0a3.85,3.85,0,0,1-3.8-3.2L42,37.18h8.5L50,39.84A3.84,3.84,0,0,1,46.24,43Z"/></g></svg>